<mxfile host="Electron" agent="Mozilla/5.0 (Windows NT 10.0; Win64; x64) AppleWebKit/537.36 (KHTML, like Gecko) draw.io/26.2.15 Chrome/134.0.6998.205 Electron/35.2.1 Safari/537.36" version="26.2.15">
  <diagram name="第 1 页" id="OlKT-M5gLfMeBqyg_Nwd">
    <mxGraphModel dx="1094" dy="815" grid="1" gridSize="10" guides="1" tooltips="1" connect="1" arrows="1" fold="1" page="1" pageScale="1" pageWidth="827" pageHeight="1169" math="0" shadow="0">
      <root>
        <mxCell id="0" />
        <mxCell id="1" parent="0" />
        <mxCell id="D4nXcXS_2H-QXnztD3oc-1" value="用户" style="swimlane;fontStyle=1;align=center;verticalAlign=top;childLayout=stackLayout;horizontal=1;startSize=38;horizontalStack=0;resizeParent=1;resizeParentMax=0;resizeLast=0;collapsible=0;marginBottom=0;labelBackgroundColor=none;fillColor=#B2C9AB;strokeColor=#788AA3;fontColor=#46495D;" vertex="1" parent="1">
          <mxGeometry x="20" y="207" width="56" height="57" as="geometry" />
        </mxCell>
        <mxCell id="D4nXcXS_2H-QXnztD3oc-2" style="line;strokeWidth=1;fillColor=none;align=left;verticalAlign=middle;spacingTop=-1;spacingLeft=3;spacingRight=3;rotatable=0;labelPosition=right;points=[];portConstraint=eastwest;strokeColor=#788AA3;labelBackgroundColor=none;fontColor=#46495D;" vertex="1" parent="D4nXcXS_2H-QXnztD3oc-1">
          <mxGeometry y="38" width="56" height="19" as="geometry" />
        </mxCell>
        <mxCell id="D4nXcXS_2H-QXnztD3oc-3" value="值班员" style="swimlane;fontStyle=1;align=center;verticalAlign=top;childLayout=stackLayout;horizontal=1;startSize=38;horizontalStack=0;resizeParent=1;resizeParentMax=0;resizeLast=0;collapsible=0;marginBottom=0;labelBackgroundColor=none;fillColor=#B2C9AB;strokeColor=#788AA3;fontColor=#46495D;" vertex="1" parent="1">
          <mxGeometry x="272" y="207" width="72" height="57" as="geometry" />
        </mxCell>
        <mxCell id="D4nXcXS_2H-QXnztD3oc-4" style="line;strokeWidth=1;fillColor=none;align=left;verticalAlign=middle;spacingTop=-1;spacingLeft=3;spacingRight=3;rotatable=0;labelPosition=right;points=[];portConstraint=eastwest;strokeColor=#788AA3;labelBackgroundColor=none;fontColor=#46495D;" vertex="1" parent="D4nXcXS_2H-QXnztD3oc-3">
          <mxGeometry y="38" width="72" height="19" as="geometry" />
        </mxCell>
        <mxCell id="D4nXcXS_2H-QXnztD3oc-5" value="管理员" style="swimlane;fontStyle=1;align=center;verticalAlign=top;childLayout=stackLayout;horizontal=1;startSize=38;horizontalStack=0;resizeParent=1;resizeParentMax=0;resizeLast=0;collapsible=0;marginBottom=0;labelBackgroundColor=none;fillColor=#B2C9AB;strokeColor=#788AA3;fontColor=#46495D;" vertex="1" parent="1">
          <mxGeometry x="138" y="20" width="72" height="57" as="geometry" />
        </mxCell>
        <mxCell id="D4nXcXS_2H-QXnztD3oc-6" style="line;strokeWidth=1;fillColor=none;align=left;verticalAlign=middle;spacingTop=-1;spacingLeft=3;spacingRight=3;rotatable=0;labelPosition=right;points=[];portConstraint=eastwest;strokeColor=#788AA3;labelBackgroundColor=none;fontColor=#46495D;" vertex="1" parent="D4nXcXS_2H-QXnztD3oc-5">
          <mxGeometry y="38" width="72" height="19" as="geometry" />
        </mxCell>
        <mxCell id="D4nXcXS_2H-QXnztD3oc-7" value="计费规则" style="swimlane;fontStyle=1;align=center;verticalAlign=top;childLayout=stackLayout;horizontal=1;startSize=38.857142857142854;horizontalStack=0;resizeParent=1;resizeParentMax=0;resizeLast=0;collapsible=0;marginBottom=0;labelBackgroundColor=none;fillColor=#B2C9AB;strokeColor=#788AA3;fontColor=#46495D;" vertex="1" parent="1">
          <mxGeometry x="126" y="177" width="96" height="135.85714285714286" as="geometry" />
        </mxCell>
        <mxCell id="D4nXcXS_2H-QXnztD3oc-8" value="+时段" style="text;strokeColor=none;fillColor=none;align=left;verticalAlign=top;spacingLeft=4;spacingRight=4;overflow=hidden;rotatable=0;points=[[0,0.5],[1,0.5]];portConstraint=eastwest;labelBackgroundColor=none;fontColor=#46495D;" vertex="1" parent="D4nXcXS_2H-QXnztD3oc-7">
          <mxGeometry y="38.857142857142854" width="96" height="39" as="geometry" />
        </mxCell>
        <mxCell id="D4nXcXS_2H-QXnztD3oc-9" value="+费率" style="text;strokeColor=none;fillColor=none;align=left;verticalAlign=top;spacingLeft=4;spacingRight=4;overflow=hidden;rotatable=0;points=[[0,0.5],[1,0.5]];portConstraint=eastwest;labelBackgroundColor=none;fontColor=#46495D;" vertex="1" parent="D4nXcXS_2H-QXnztD3oc-7">
          <mxGeometry y="77.85714285714286" width="96" height="39" as="geometry" />
        </mxCell>
        <mxCell id="D4nXcXS_2H-QXnztD3oc-10" style="line;strokeWidth=1;fillColor=none;align=left;verticalAlign=middle;spacingTop=-1;spacingLeft=3;spacingRight=3;rotatable=0;labelPosition=right;points=[];portConstraint=eastwest;strokeColor=#788AA3;labelBackgroundColor=none;fontColor=#46495D;" vertex="1" parent="D4nXcXS_2H-QXnztD3oc-7">
          <mxGeometry y="116.85714285714286" width="96" height="19" as="geometry" />
        </mxCell>
        <mxCell id="D4nXcXS_2H-QXnztD3oc-11" value="订单" style="swimlane;fontStyle=1;align=center;verticalAlign=top;childLayout=stackLayout;horizontal=1;startSize=38.857142857142854;horizontalStack=0;resizeParent=1;resizeParentMax=0;resizeLast=0;collapsible=0;marginBottom=0;labelBackgroundColor=none;fillColor=#B2C9AB;strokeColor=#788AA3;fontColor=#46495D;" vertex="1" parent="1">
          <mxGeometry x="134" y="393" width="80" height="135.85714285714286" as="geometry" />
        </mxCell>
        <mxCell id="D4nXcXS_2H-QXnztD3oc-12" value="+金额" style="text;strokeColor=none;fillColor=none;align=left;verticalAlign=top;spacingLeft=4;spacingRight=4;overflow=hidden;rotatable=0;points=[[0,0.5],[1,0.5]];portConstraint=eastwest;labelBackgroundColor=none;fontColor=#46495D;" vertex="1" parent="D4nXcXS_2H-QXnztD3oc-11">
          <mxGeometry y="38.857142857142854" width="80" height="39" as="geometry" />
        </mxCell>
        <mxCell id="D4nXcXS_2H-QXnztD3oc-13" value="+状态" style="text;strokeColor=none;fillColor=none;align=left;verticalAlign=top;spacingLeft=4;spacingRight=4;overflow=hidden;rotatable=0;points=[[0,0.5],[1,0.5]];portConstraint=eastwest;labelBackgroundColor=none;fontColor=#46495D;" vertex="1" parent="D4nXcXS_2H-QXnztD3oc-11">
          <mxGeometry y="77.85714285714286" width="80" height="39" as="geometry" />
        </mxCell>
        <mxCell id="D4nXcXS_2H-QXnztD3oc-14" style="line;strokeWidth=1;fillColor=none;align=left;verticalAlign=middle;spacingTop=-1;spacingLeft=3;spacingRight=3;rotatable=0;labelPosition=right;points=[];portConstraint=eastwest;strokeColor=#788AA3;labelBackgroundColor=none;fontColor=#46495D;" vertex="1" parent="D4nXcXS_2H-QXnztD3oc-11">
          <mxGeometry y="116.85714285714286" width="80" height="19" as="geometry" />
        </mxCell>
        <mxCell id="D4nXcXS_2H-QXnztD3oc-15" value="生成" style="curved=1;startArrow=none;endArrow=open;endSize=12;exitX=0.5;exitY=1;entryX=0;entryY=0.26;rounded=0;labelBackgroundColor=none;strokeColor=#788AA3;fontColor=default;" edge="1" parent="1" source="D4nXcXS_2H-QXnztD3oc-1" target="D4nXcXS_2H-QXnztD3oc-11">
          <mxGeometry relative="1" as="geometry">
            <Array as="points">
              <mxPoint x="48" y="357" />
            </Array>
          </mxGeometry>
        </mxCell>
        <mxCell id="D4nXcXS_2H-QXnztD3oc-16" value="1" style="edgeLabel;resizable=0;labelBackgroundColor=none;fontSize=12;align=left;verticalAlign=top;fontColor=#46495D;" vertex="1" parent="D4nXcXS_2H-QXnztD3oc-15">
          <mxGeometry x="-1" relative="1" as="geometry" />
        </mxCell>
        <mxCell id="D4nXcXS_2H-QXnztD3oc-17" value="1..*" style="edgeLabel;resizable=0;labelBackgroundColor=none;fontSize=12;align=right;verticalAlign=bottom;fontColor=#46495D;" vertex="1" parent="D4nXcXS_2H-QXnztD3oc-15">
          <mxGeometry x="1" relative="1" as="geometry" />
        </mxCell>
        <mxCell id="D4nXcXS_2H-QXnztD3oc-18" value="计算" style="curved=1;startArrow=none;endArrow=open;endSize=12;exitX=0.5;exitY=1;entryX=0.5;entryY=0;rounded=0;labelBackgroundColor=none;strokeColor=#788AA3;fontColor=default;" edge="1" parent="1" source="D4nXcXS_2H-QXnztD3oc-7" target="D4nXcXS_2H-QXnztD3oc-11">
          <mxGeometry relative="1" as="geometry">
            <Array as="points" />
          </mxGeometry>
        </mxCell>
        <mxCell id="D4nXcXS_2H-QXnztD3oc-19" value="1" style="edgeLabel;resizable=0;labelBackgroundColor=none;fontSize=12;align=right;verticalAlign=top;fontColor=#46495D;" vertex="1" parent="D4nXcXS_2H-QXnztD3oc-18">
          <mxGeometry x="-1" relative="1" as="geometry" />
        </mxCell>
        <mxCell id="D4nXcXS_2H-QXnztD3oc-20" value="1..*" style="edgeLabel;resizable=0;labelBackgroundColor=none;fontSize=12;align=left;verticalAlign=bottom;fontColor=#46495D;" vertex="1" parent="D4nXcXS_2H-QXnztD3oc-18">
          <mxGeometry x="1" relative="1" as="geometry" />
        </mxCell>
        <mxCell id="D4nXcXS_2H-QXnztD3oc-21" value="处理" style="curved=1;startArrow=none;endArrow=open;endSize=12;exitX=0.51;exitY=1;entryX=1;entryY=0.28;rounded=0;labelBackgroundColor=none;strokeColor=#788AA3;fontColor=default;" edge="1" parent="1" source="D4nXcXS_2H-QXnztD3oc-3" target="D4nXcXS_2H-QXnztD3oc-11">
          <mxGeometry relative="1" as="geometry">
            <Array as="points">
              <mxPoint x="308" y="357" />
            </Array>
          </mxGeometry>
        </mxCell>
        <mxCell id="D4nXcXS_2H-QXnztD3oc-22" value="1" style="edgeLabel;resizable=0;labelBackgroundColor=none;fontSize=12;align=right;verticalAlign=top;fontColor=#46495D;" vertex="1" parent="D4nXcXS_2H-QXnztD3oc-21">
          <mxGeometry x="-1" relative="1" as="geometry" />
        </mxCell>
        <mxCell id="D4nXcXS_2H-QXnztD3oc-23" value="0..*" style="edgeLabel;resizable=0;labelBackgroundColor=none;fontSize=12;align=left;verticalAlign=bottom;fontColor=#46495D;" vertex="1" parent="D4nXcXS_2H-QXnztD3oc-21">
          <mxGeometry x="1" relative="1" as="geometry" />
        </mxCell>
        <mxCell id="D4nXcXS_2H-QXnztD3oc-24" value="配置" style="curved=1;startArrow=none;endArrow=open;endSize=12;exitX=0.5;exitY=1;entryX=0.5;entryY=0;rounded=0;labelBackgroundColor=none;strokeColor=#788AA3;fontColor=default;" edge="1" parent="1" source="D4nXcXS_2H-QXnztD3oc-5" target="D4nXcXS_2H-QXnztD3oc-7">
          <mxGeometry relative="1" as="geometry">
            <Array as="points" />
          </mxGeometry>
        </mxCell>
        <mxCell id="D4nXcXS_2H-QXnztD3oc-25" value="1" style="edgeLabel;resizable=0;labelBackgroundColor=none;fontSize=12;align=right;verticalAlign=top;fontColor=#46495D;" vertex="1" parent="D4nXcXS_2H-QXnztD3oc-24">
          <mxGeometry x="-1" relative="1" as="geometry" />
        </mxCell>
        <mxCell id="D4nXcXS_2H-QXnztD3oc-26" value="1..*" style="edgeLabel;resizable=0;labelBackgroundColor=none;fontSize=12;align=left;verticalAlign=bottom;fontColor=#46495D;" vertex="1" parent="D4nXcXS_2H-QXnztD3oc-24">
          <mxGeometry x="1" relative="1" as="geometry" />
        </mxCell>
      </root>
    </mxGraphModel>
  </diagram>
</mxfile>
